<?xml version="1.0"?>
<svg xmlns="http://www.w3.org/2000/svg" xmlns:xlink="http://www.w3.org/1999/xlink" xmlns:svgjs="http://svgjs.com/svgjs" version="1.1" width="512" height="512" x="0" y="0" viewBox="0 0 512 512" style="enable-background:new 0 0 512 512" xml:space="preserve" class=""><g><g xmlns="http://www.w3.org/2000/svg"><path d="m256 0c-140.959 0-256 115.05-256 256 0 140.959 115.05 256 256 256 140.959 0 256-115.049 256-256 0-140.959-115.049-256-256-256zm0 482c-124.617 0-226-101.383-226-226s101.383-226 226-226 226 101.383 226 226-101.383 226-226 226z" fill="#959a9d" data-original="#000000" style="" class=""/><path d="m256.417 60.005c-.044-.001-.322-.005-.417-.005-107.799 0-196 88.214-196 196 0 107.685 88.066 195.918 195.852 195.998.045 0 .089.004.134.004.038 0 .075-.003.112-.003 107.728-.054 195.902-88.217 195.902-195.999 0-107.697-88.018-195.769-195.583-195.995zm43.147 270.995h-86.865l-43.313-75.021 43.05-74.979h86.866l43.313 75.02zm-209.564-75c0-20.711 3.824-40.543 10.784-58.842l77.274 133.842h-70.123c-11.464-22.54-17.935-48.027-17.935-75zm243.943-75h70.122c11.464 22.54 17.935 48.027 17.935 75 0 20.711-3.824 40.543-10.784 58.841zm50.531-30h-154.814l34.898-60.782c48.261 2.463 91.14 25.637 119.916 60.782zm-155.669-58.76-76.764 133.698-35.006-60.631c24.941-38.086 65.099-65.342 111.77-73.067zm-101.279 268.76h154.813l-34.898 60.782c-48.259-2.463-91.138-25.637-119.915-60.782zm155.669 58.76 76.764-133.698 35.005 60.631c-24.94 38.086-65.098 65.342-111.769 73.067z" fill="#959a9d" data-original="#000000" style="" class=""/><path d="m256 211c-24.813 0-45 20.187-45 45s20.187 45 45 45 45-20.187 45-45-20.187-45-45-45zm0 60c-8.271 0-15-6.729-15-15s6.729-15 15-15 15 6.729 15 15-6.729 15-15 15z" fill="#959a9d" data-original="#000000" style="" class=""/></g></g></svg>
