<?xml version="1.0"?>
<svg xmlns="http://www.w3.org/2000/svg" xmlns:xlink="http://www.w3.org/1999/xlink" xmlns:svgjs="http://svgjs.com/svgjs" version="1.1" width="512" height="512" x="0" y="0" viewBox="0 0 509.508 509.508" style="enable-background:new 0 0 512 512" xml:space="preserve" class=""><g><g xmlns="http://www.w3.org/2000/svg" id="XMLID_1146_"><circle id="XMLID_1147_" cx="254.754" cy="254.754" r="30.128" fill="#d1d5db" data-original="#000000" style=""/><path id="XMLID_1148_" d="m500.405 244.691c-1.12-1.239-27.94-30.678-71.349-60.359-55.687-38.077-113.432-58.917-167.483-60.542 69.154 3.56 124.319 60.94 124.319 130.963s-55.166 127.403-124.319 130.963c54.052-1.625 111.796-22.465 167.483-60.542 43.408-29.681 70.229-59.12 71.349-60.359l9.103-10.062z" fill="#d1d5db" data-original="#000000" style=""/><path id="XMLID_1149_" d="m123.615 254.754c0-70.023 55.166-127.403 124.319-130.963-54.052 1.625-111.796 22.465-167.483 60.542-43.408 29.681-70.229 59.12-71.349 60.359l-9.102 10.062 9.103 10.062c1.12 1.239 27.94 30.678 71.349 60.359 55.687 38.077 113.432 58.917 167.483 60.542-69.154-3.56-124.32-60.94-124.32-130.963z" fill="#d1d5db" data-original="#000000" style=""/><path id="XMLID_1152_" d="m355.893 254.754c0-55.769-45.37-101.139-101.139-101.139s-101.139 45.371-101.139 101.139 45.37 101.139 101.139 101.139 101.139-45.371 101.139-101.139zm-161.267 0c0-33.155 26.974-60.128 60.128-60.128s60.128 26.973 60.128 60.128-26.974 60.128-60.128 60.128-60.128-26.973-60.128-60.128z" fill="#d1d5db" data-original="#000000" style=""/></g></g></svg>
